<?xml version="1.0"?><svg xmlns="http://www.w3.org/2000/svg" xmlns:xlink="http://www.w3.org/1999/xlink" viewBox="-26.47 -26.47 153.75 247.14" style="overflow: visible; width: 100%; height: 100%; position: absolute; left: 0px; top: 0px; transition: 350ms ease-in-out; backface-visibility: hidden; opacity: 1; transform: rotate3d(1, 1, 0, 0deg);"><g transform="translate(0 0)"><g transform="translate(0 0)"><g transform="translate(0 0)"><g></g><g transform="translate(0 0)"><g><g fill="#243665" stroke="none" x="0" y="0" transform="translate(-46.37768064332304, -1.3155718229252447) scale(6.048605220470173)"><g data-name="Layer 6"><path d="M22.4.47H9.6A1.69,1.69,0,0,0,7.92,2.16V6A1.69,1.69,0,0,0,9.6,7.64h3V25.93L16,32.07l3.37-6.14V7.64h3A1.69,1.69,0,0,0,24.08,6V2.16A1.69,1.69,0,0,0,22.4.47ZM13.63,22.14l4.73-3.42V21.3l-4.73,3.42Zm4.73.39v2.58l-3.61,2.61-1-1.85Zm0-5-4.73,3.42V18.33l4.73-3.43Zm0-3.82L13.63,17.1V14.51l4.73-3.42Zm-4.73-6h2.53L13.63,9.47Zm1.61,21,2.51-1.82L16,30ZM18.37,9.86l-4.73,3.42V10.7l4.23-3.06h.5ZM23.08,6a.69.69,0,0,1-.69.69H9.6A.69.69,0,0,1,8.92,6V2.16a.69.69,0,0,1,.69-.69H22.4a.69.69,0,0,1,.69.69Z" fill-rule="nonzero" fill="#243665" stroke="none" stroke-width="1px" stroke-linecap="butt" stroke-linejoin="miter" stroke-miterlimit="4" stroke-dasharray="none"></path></g></g></g></g></g></g></g></svg>