<?xml version="1.0"?><svg xmlns="http://www.w3.org/2000/svg" xmlns:xlink="http://www.w3.org/1999/xlink" viewBox="0.3850237727165222 3.725290298461914e-7 269.70379638671875 48.570186614990234" style="overflow: visible; width: 100%; height: 100%; position: absolute; left: 0px; top: 0px; transition: 350ms ease-in-out; backface-visibility: hidden; opacity: 1; transform: translate3d(0px, 0px, 0px) rotate3d(1, 1, 0, 0deg);" width="798.4031936127744px" height="4433.426910041717px"><g transform="translate(0 0)"><g transform="translate(0 0)"><g transform="translate(34.73637407317202 0)"><g transform="translate(0 0)"><g transform="scale(0.15448275862068966 0.15448275862068966) translate(-2.0999999046325684 69)"><g transform="translate(0.000,0)" fill="#000000" stroke="#000000" stroke-width="0"><path d="M2.10,0.00L31.80,0.00L31.80,-11.50L23.30,-11.50L23.30,-49.90L23.50,-49.90L52.50,0.00L67.70,0.00L67.70,-56.40L77.30,-56.40L77.30,-67.90L46.80,-67.90L46.80,-56.40L55.60,-56.40L55.60,-25.50L55.40,-25.50L30.50,-67.90L2.10,-67.90L2.10,-56.40L11.20,-56.40L11.20,-11.50L2.10,-11.50Z   " class=""></path></g><g transform="translate(79.200,0)" fill="#000000" stroke="#000000" stroke-width="0"><path d="M57.00,-10.90L49.40,-10.90L49.40,-30.30L49.37,-31.62L49.17,-34.11L48.75,-36.38L48.11,-38.44L47.25,-40.30L46.17,-41.96L44.86,-43.42L43.31,-44.68L41.52,-45.76L39.49,-46.64L37.21,-47.34L34.67,-47.86L31.88,-48.21L28.83,-48.38L27.20,-48.40L25.85,-48.38L23.27,-48.26L20.85,-48.01L18.59,-47.63L16.48,-47.11L14.52,-46.47L12.71,-45.69L11.05,-44.77L9.52,-43.72L8.13,-42.52L6.88,-41.18L5.75,-39.70L4.75,-38.07L4.30,-37.20L16.50,-35.10L17.30,-35.84L18.89,-37.05L20.50,-37.93L22.21,-38.49L24.08,-38.77L25.10,-38.80L26.41,-38.73L28.78,-38.19L30.78,-37.17L32.36,-35.71L33.45,-33.86L34.03,-31.69L34.10,-30.50L34.10,-27.90L32.99,-28.27L30.93,-28.93L28.94,-29.44L26.89,-29.79L24.64,-29.98L23.40,-30.00L22.11,-29.97L19.62,-29.74L17.27,-29.29L15.06,-28.63L13.02,-27.77L11.15,-26.72L9.46,-25.50L7.98,-24.12L6.71,-22.58L5.67,-20.91L4.86,-19.10L4.32,-17.18L4.04,-15.15L4.00,-14.10L4.05,-12.95L4.40,-10.76L5.09,-8.69L6.09,-6.79L7.38,-5.05L8.94,-3.51L10.74,-2.18L12.77,-1.08L14.99,-0.23L17.40,0.36L19.97,0.66L21.30,0.70L22.27,0.68L24.16,0.52L25.99,0.18L27.77,-0.34L29.55,-1.04L31.34,-1.95L33.17,-3.06L34.10,-3.70L34.10,0.00L57.00,0.00Z   M34.10,-17.50L34.10,-13.60L32.95,-12.59L30.87,-10.95L29.02,-9.80L27.30,-9.08L25.58,-8.74L24.70,-8.70L23.43,-8.82L21.20,-9.74L19.54,-11.42L18.62,-13.70L18.50,-15.00L18.59,-15.99L19.23,-17.77L20.45,-19.22L22.15,-20.27L24.23,-20.83L25.40,-20.90L26.10,-20.87L27.59,-20.62L29.22,-20.10L31.02,-19.29L33.02,-18.18L34.10,-17.50Z   " class=""></path></g><g transform="translate(137.500,0)" fill="#000000" stroke="#000000" stroke-width="0"><path d="M19.00,-69.00L17.87,-68.93L15.78,-68.37L13.96,-67.31L12.49,-65.84L11.43,-64.02L10.87,-61.93L10.80,-60.80L10.87,-59.67L11.43,-57.56L12.49,-55.72L13.96,-54.22L15.78,-53.15L17.87,-52.58L19.00,-52.50L20.13,-52.58L22.24,-53.15L24.08,-54.22L25.58,-55.72L26.65,-57.56L27.22,-59.67L27.30,-60.80L27.22,-61.93L26.65,-64.02L25.58,-65.84L24.08,-67.31L22.24,-68.37L20.13,-68.93Z   " class=""></path><path d="M4.30,-36.40L11.20,-36.40L11.20,-10.90L4.30,-10.90L4.30,0.00L33.40,0.00L33.40,-10.90L26.50,-10.90L26.50,-47.30L4.30,-47.30Z   " class=""></path></g><g transform="translate(172.900,0)" fill="#000000" stroke="#000000" stroke-width="0"><path d="M3.60,0.00L33.00,0.00L33.00,-10.90L26.20,-10.90L26.20,-67.90L3.60,-67.90L3.60,-57.00L10.90,-57.00L10.90,-10.90L3.60,-10.90Z   " class=""></path></g><g transform="translate(208.300,0)" fill="#000000" stroke="#000000" stroke-width="0"><path d="M41.60,-14.20L40.54,-13.21L38.59,-11.57L36.81,-10.34L35.10,-9.49L33.39,-8.97L31.57,-8.73L30.60,-8.70L29.05,-8.77L26.34,-9.33L24.12,-10.35L22.34,-11.76L20.98,-13.46L20.00,-15.37L19.37,-17.41L19.05,-19.48L19.00,-20.50L53.60,-20.50L53.67,-21.83L53.65,-24.41L53.44,-26.88L53.04,-29.24L52.46,-31.49L51.71,-33.61L50.80,-35.61L49.73,-37.48L48.52,-39.22L47.17,-40.82L45.70,-42.29L44.10,-43.60L42.40,-44.77L40.59,-45.78L38.69,-46.63L36.70,-47.32L34.64,-47.84L32.51,-48.20L30.32,-48.38L29.20,-48.40L27.98,-48.38L25.59,-48.18L23.29,-47.79L21.08,-47.22L18.97,-46.48L16.97,-45.57L15.08,-44.50L13.31,-43.27L11.67,-41.89L10.16,-40.37L8.80,-38.72L7.58,-36.95L6.51,-35.05L5.60,-33.04L4.87,-30.93L4.30,-28.72L3.92,-26.41L3.72,-24.02L3.70,-22.80L3.72,-21.59L3.91,-19.24L4.28,-17.00L4.84,-14.88L5.57,-12.86L6.47,-10.97L7.53,-9.20L8.76,-7.56L10.15,-6.04L11.69,-4.67L13.38,-3.42L15.22,-2.32L17.20,-1.37L19.31,-0.57L21.56,0.08L23.93,0.58L26.43,0.91L29.05,1.08L30.40,1.10L31.58,1.08L33.87,0.94L36.08,0.66L38.20,0.24L40.24,-0.32L42.18,-1.02L44.03,-1.85L45.78,-2.82L47.43,-3.92L48.98,-5.15L50.43,-6.52L51.78,-8.01L53.02,-9.64L53.60,-10.50Z   M19.00,-28.90L19.23,-30.24L19.91,-32.61L20.87,-34.58L22.12,-36.14L23.66,-37.30L25.47,-38.07L27.56,-38.45L28.70,-38.50L29.85,-38.45L31.98,-38.02L33.85,-37.18L35.46,-35.95L36.78,-34.36L37.80,-32.41L38.48,-30.15L38.70,-28.90Z   " class=""></path></g><g transform="translate(265.600,0)" fill="#000000" stroke="#000000" stroke-width="0"><path d="M60.60,-10.90L53.30,-10.90L53.30,-67.90L30.70,-67.90L30.70,-57.00L38.00,-57.00L38.00,-42.10L37.23,-42.93L35.58,-44.43L33.79,-45.71L31.87,-46.75L29.85,-47.55L27.73,-48.09L25.53,-48.37L24.40,-48.40L23.32,-48.37L21.21,-48.12L19.18,-47.65L17.24,-46.94L15.39,-46.03L13.65,-44.92L12.02,-43.61L10.51,-42.13L9.13,-40.48L7.89,-38.67L6.80,-36.72L5.87,-34.64L5.11,-32.43L4.53,-30.11L4.13,-27.69L3.93,-25.18L3.90,-23.90L3.93,-22.60L4.13,-20.06L4.52,-17.61L5.10,-15.28L5.85,-13.05L6.78,-10.96L7.85,-9.00L9.08,-7.20L10.45,-5.55L11.95,-4.07L13.57,-2.77L15.31,-1.66L17.15,-0.75L19.09,-0.05L21.12,0.43L23.22,0.67L24.30,0.70L25.24,0.68L27.06,0.50L28.81,0.15L30.50,-0.41L32.16,-1.17L33.81,-2.14L35.46,-3.35L37.14,-4.79L38.00,-5.60L38.00,0.00L60.60,0.00Z   M38.20,-23.90L38.14,-22.24L37.73,-19.29L36.94,-16.83L35.85,-14.83L34.52,-13.28L32.99,-12.14L31.32,-11.40L29.58,-11.04L28.70,-11.00L27.66,-11.06L25.73,-11.51L24.02,-12.39L22.55,-13.67L21.34,-15.32L20.41,-17.31L19.77,-19.62L19.44,-22.21L19.40,-23.60L19.44,-25.01L19.76,-27.60L20.39,-29.89L21.30,-31.84L22.49,-33.44L23.94,-34.67L25.63,-35.52L27.56,-35.95L28.60,-36.00L29.70,-35.94L31.71,-35.49L33.49,-34.62L35.00,-33.37L36.23,-31.77L37.18,-29.85L37.83,-27.65L38.16,-25.21L38.20,-23.90Z   " class=""></path></g><g transform="translate(328.100,0)" fill="#000000" stroke="#000000" stroke-width="0"><path d="" class=""></path></g><g transform="translate(353.100,0)" fill="#000000" stroke="#000000" stroke-width="0"><path d="M2.20,0.00L40.50,0.00L40.50,-11.50L30.20,-11.50L30.20,-56.40L40.50,-56.40L40.50,-67.90L2.20,-67.90L2.20,-56.40L12.50,-56.40L12.50,-11.50L2.20,-11.50Z   " class=""></path></g><g transform="translate(395.800,0)" fill="#000000" stroke="#000000" stroke-width="0"><path d="M1.90,-36.40L7.90,-36.40L7.90,-10.60L7.97,-9.09L8.54,-6.44L9.59,-4.26L11.05,-2.52L12.82,-1.18L14.84,-0.23L17.02,0.38L19.27,0.67L20.40,0.70L21.33,0.68L23.19,0.55L25.07,0.28L26.96,-0.12L28.85,-0.65L30.75,-1.32L31.70,-1.70L31.70,-11.90L30.32,-11.46L28.20,-11.04L27.10,-11.00L25.70,-11.08L23.95,-11.91L23.27,-14.11L23.20,-15.90L23.20,-36.40L31.70,-36.40L31.70,-47.30L23.20,-47.30L23.20,-65.50L7.90,-54.70L7.90,-47.30L1.90,-47.30Z   " class=""></path></g><g transform="translate(430.200,0)" fill="#000000" stroke="#000000" stroke-width="0"><path d="" class=""></path></g><g transform="translate(455.200,0)" fill="#000000" stroke="#000000" stroke-width="0"><path d="M47.60,-22.80L59.50,-22.80L59.16,-21.73L58.32,-19.74L57.29,-17.95L56.06,-16.38L54.64,-15.01L53.04,-13.87L51.27,-12.94L49.33,-12.24L47.23,-11.77L44.98,-11.53L43.80,-11.50L42.89,-11.52L41.07,-11.68L39.25,-12.00L37.46,-12.49L35.72,-13.15L34.03,-14.00L32.41,-15.03L30.89,-16.25L29.47,-17.67L28.17,-19.30L27.01,-21.13L26.00,-23.18L25.16,-25.44L24.51,-27.94L24.06,-30.66L23.83,-33.63L23.80,-35.20L23.83,-36.48L24.03,-38.94L24.44,-41.29L25.04,-43.50L25.82,-45.58L26.78,-47.50L27.91,-49.28L29.20,-50.89L30.65,-52.33L32.24,-53.58L33.97,-54.65L35.84,-55.52L37.83,-56.19L39.94,-56.64L42.15,-56.87L43.30,-56.90L44.39,-56.88L46.48,-56.70L48.47,-56.34L50.38,-55.78L52.23,-55.00L54.02,-53.99L54.90,-53.40L55.71,-52.80L57.22,-51.49L58.58,-50.03L59.78,-48.41L60.81,-46.66L61.65,-44.79L62.00,-43.80L73.50,-43.80L73.50,-67.90L62.00,-67.90L62.00,-62.30L61.33,-62.87L59.88,-63.95L58.30,-64.93L56.60,-65.81L54.78,-66.59L52.86,-67.26L50.85,-67.83L48.74,-68.29L46.55,-68.63L44.30,-68.87L41.98,-68.99L40.80,-69.00L39.54,-68.98L37.05,-68.85L34.64,-68.58L32.30,-68.18L30.02,-67.65L27.83,-67.00L25.71,-66.23L23.67,-65.34L21.73,-64.33L19.87,-63.22L18.10,-61.99L16.42,-60.67L14.85,-59.24L13.38,-57.71L12.01,-56.09L10.75,-54.37L9.60,-52.57L8.57,-50.68L7.65,-48.71L6.86,-46.66L6.19,-44.53L5.65,-42.33L5.24,-40.06L4.96,-37.72L4.82,-35.32L4.80,-34.10L4.81,-33.00L4.92,-30.83L5.15,-28.69L5.48,-26.59L5.92,-24.54L6.48,-22.53L7.15,-20.57L7.93,-18.67L8.82,-16.84L9.82,-15.06L10.94,-13.36L12.16,-11.73L13.50,-10.18L14.95,-8.71L16.52,-7.33L18.19,-6.04L19.98,-4.85L21.88,-3.75L23.89,-2.76L26.02,-1.88L28.26,-1.11L30.61,-0.46L33.08,0.07L35.66,0.47L38.35,0.74L41.15,0.88L42.60,0.90L43.54,0.89L45.48,0.81L47.46,0.65L49.48,0.40L51.52,0.07L53.58,-0.37L55.64,-0.90L57.69,-1.54L59.72,-2.29L61.72,-3.15L63.66,-4.13L65.55,-5.23L67.38,-6.46L69.11,-7.82L70.76,-9.32L72.30,-10.95L73.72,-12.73L75.02,-14.66L76.17,-16.74L77.17,-18.98L78.00,-21.38L78.66,-23.94L79.13,-26.68L79.40,-29.59L79.46,-32.69L79.40,-34.30L47.60,-34.30Z   " class=""></path></g><g transform="translate(539.600,0)" fill="#000000" stroke="#000000" stroke-width="0"><path d="M41.60,-14.20L40.54,-13.21L38.59,-11.57L36.81,-10.34L35.10,-9.49L33.39,-8.97L31.57,-8.73L30.60,-8.70L29.05,-8.77L26.34,-9.33L24.12,-10.35L22.34,-11.76L20.98,-13.46L20.00,-15.37L19.37,-17.41L19.05,-19.48L19.00,-20.50L53.60,-20.50L53.67,-21.83L53.65,-24.41L53.44,-26.88L53.04,-29.24L52.46,-31.49L51.71,-33.61L50.80,-35.61L49.73,-37.48L48.52,-39.22L47.17,-40.82L45.70,-42.29L44.10,-43.60L42.40,-44.77L40.59,-45.78L38.69,-46.63L36.70,-47.32L34.64,-47.84L32.51,-48.20L30.32,-48.38L29.20,-48.40L27.98,-48.38L25.59,-48.18L23.29,-47.79L21.08,-47.22L18.97,-46.48L16.97,-45.57L15.08,-44.50L13.31,-43.27L11.67,-41.89L10.16,-40.37L8.80,-38.72L7.58,-36.95L6.51,-35.05L5.60,-33.04L4.87,-30.93L4.30,-28.72L3.92,-26.41L3.72,-24.02L3.70,-22.80L3.72,-21.59L3.91,-19.24L4.28,-17.00L4.84,-14.88L5.57,-12.86L6.47,-10.97L7.53,-9.20L8.76,-7.56L10.15,-6.04L11.69,-4.67L13.38,-3.42L15.22,-2.32L17.20,-1.37L19.31,-0.57L21.56,0.08L23.93,0.58L26.43,0.91L29.05,1.08L30.40,1.10L31.58,1.08L33.87,0.94L36.08,0.66L38.20,0.24L40.24,-0.32L42.18,-1.02L44.03,-1.85L45.78,-2.82L47.43,-3.92L48.98,-5.15L50.43,-6.52L51.78,-8.01L53.02,-9.64L53.60,-10.50Z   M19.00,-28.90L19.23,-30.24L19.91,-32.61L20.87,-34.58L22.12,-36.14L23.66,-37.30L25.47,-38.07L27.56,-38.45L28.70,-38.50L29.85,-38.45L31.98,-38.02L33.85,-37.18L35.46,-35.95L36.78,-34.36L37.80,-32.41L38.48,-30.15L38.70,-28.90Z   " class=""></path></g><g transform="translate(596.900,0)" fill="#000000" stroke="#000000" stroke-width="0"><path d="M3.60,-36.40L10.90,-36.40L10.90,-10.90L3.60,-10.90L3.60,0.00L32.50,0.00L32.50,-10.90L26.20,-10.90L26.20,-32.20L27.25,-32.91L29.37,-34.06L31.47,-34.85L33.51,-35.25L34.50,-35.30L35.80,-35.17L37.75,-34.07L38.77,-31.71L38.90,-30.00L38.90,0.00L61.10,0.00L61.10,-10.90L54.20,-10.90L54.20,-31.90L54.15,-33.57L53.77,-36.59L53.06,-39.19L52.06,-41.39L50.81,-43.22L49.36,-44.71L47.76,-45.89L46.04,-46.78L44.26,-47.40L42.45,-47.80L40.67,-47.98L39.80,-48.00L38.78,-47.98L36.82,-47.79L34.91,-47.40L33.04,-46.80L31.15,-45.98L29.23,-44.93L27.24,-43.64L26.20,-42.90L26.20,-47.30L3.60,-47.30Z   " class=""></path></g><g transform="translate(659.400,0)" fill="#000000" stroke="#000000" stroke-width="0"><path d="M41.60,-14.20L40.54,-13.21L38.59,-11.57L36.81,-10.34L35.10,-9.49L33.39,-8.97L31.57,-8.73L30.60,-8.70L29.05,-8.77L26.34,-9.33L24.12,-10.35L22.34,-11.76L20.98,-13.46L20.00,-15.37L19.37,-17.41L19.05,-19.48L19.00,-20.50L53.60,-20.50L53.67,-21.83L53.65,-24.41L53.44,-26.88L53.04,-29.24L52.46,-31.49L51.71,-33.61L50.80,-35.61L49.73,-37.48L48.52,-39.22L47.17,-40.82L45.70,-42.29L44.10,-43.60L42.40,-44.77L40.59,-45.78L38.69,-46.63L36.70,-47.32L34.64,-47.84L32.51,-48.20L30.32,-48.38L29.20,-48.40L27.98,-48.38L25.59,-48.18L23.29,-47.79L21.08,-47.22L18.97,-46.48L16.97,-45.57L15.08,-44.50L13.31,-43.27L11.67,-41.89L10.16,-40.37L8.80,-38.72L7.58,-36.95L6.51,-35.05L5.60,-33.04L4.87,-30.93L4.30,-28.72L3.92,-26.41L3.72,-24.02L3.70,-22.80L3.72,-21.59L3.91,-19.24L4.28,-17.00L4.84,-14.88L5.57,-12.86L6.47,-10.97L7.53,-9.20L8.76,-7.56L10.15,-6.04L11.69,-4.67L13.38,-3.42L15.22,-2.32L17.20,-1.37L19.31,-0.57L21.56,0.08L23.93,0.58L26.43,0.91L29.05,1.08L30.40,1.10L31.58,1.08L33.87,0.94L36.08,0.66L38.20,0.24L40.24,-0.32L42.18,-1.02L44.03,-1.85L45.78,-2.82L47.43,-3.92L48.98,-5.15L50.43,-6.52L51.78,-8.01L53.02,-9.64L53.60,-10.50Z   M19.00,-28.90L19.23,-30.24L19.91,-32.61L20.87,-34.58L22.12,-36.14L23.66,-37.30L25.47,-38.07L27.56,-38.45L28.70,-38.50L29.85,-38.45L31.98,-38.02L33.85,-37.18L35.46,-35.95L36.78,-34.36L37.80,-32.41L38.48,-30.15L38.70,-28.90Z   " class=""></path></g><g transform="translate(716.700,0)" fill="#000000" stroke="#000000" stroke-width="0"><path d="M36.00,-10.90L26.80,-10.90L26.80,-15.90L26.82,-17.09L26.97,-19.42L27.28,-21.66L27.78,-23.77L28.49,-25.75L29.42,-27.56L30.59,-29.19L32.03,-30.60L33.76,-31.78L35.78,-32.69L38.13,-33.33L40.82,-33.66L42.30,-33.70L44.10,-33.70L44.10,-48.00L41.90,-48.00L40.74,-47.97L38.52,-47.70L36.43,-47.17L34.46,-46.38L32.63,-45.34L30.95,-44.05L29.43,-42.52L28.06,-40.74L26.87,-38.74L25.84,-36.50L25.40,-35.30L25.20,-35.30L25.20,-47.30L3.50,-47.30L3.50,-36.40L11.50,-36.40L11.50,-10.90L2.70,-10.90L2.70,0.00L36.00,0.00Z   " class=""></path></g><g transform="translate(761.500,0)" fill="#000000" stroke="#000000" stroke-width="0"><path d="M57.00,-10.90L49.40,-10.90L49.40,-30.30L49.37,-31.62L49.17,-34.11L48.75,-36.38L48.11,-38.44L47.25,-40.30L46.17,-41.96L44.86,-43.42L43.31,-44.68L41.52,-45.76L39.49,-46.64L37.21,-47.34L34.67,-47.86L31.88,-48.21L28.83,-48.38L27.20,-48.40L25.85,-48.38L23.27,-48.26L20.85,-48.01L18.59,-47.63L16.48,-47.11L14.52,-46.47L12.71,-45.69L11.05,-44.77L9.52,-43.72L8.13,-42.52L6.88,-41.18L5.75,-39.70L4.75,-38.07L4.30,-37.20L16.50,-35.10L17.30,-35.84L18.89,-37.05L20.50,-37.93L22.21,-38.49L24.08,-38.77L25.10,-38.80L26.41,-38.73L28.78,-38.19L30.78,-37.17L32.36,-35.71L33.45,-33.86L34.03,-31.69L34.10,-30.50L34.10,-27.90L32.99,-28.27L30.93,-28.93L28.94,-29.44L26.89,-29.79L24.64,-29.98L23.40,-30.00L22.11,-29.97L19.62,-29.74L17.27,-29.29L15.06,-28.63L13.02,-27.77L11.15,-26.72L9.46,-25.50L7.98,-24.12L6.71,-22.58L5.67,-20.91L4.86,-19.10L4.32,-17.18L4.04,-15.15L4.00,-14.10L4.05,-12.95L4.40,-10.76L5.09,-8.69L6.09,-6.79L7.38,-5.05L8.94,-3.51L10.74,-2.18L12.77,-1.08L14.99,-0.23L17.40,0.36L19.97,0.66L21.30,0.70L22.27,0.68L24.16,0.52L25.99,0.18L27.77,-0.34L29.55,-1.04L31.34,-1.95L33.17,-3.06L34.10,-3.70L34.10,0.00L57.00,0.00Z   M34.10,-17.50L34.10,-13.60L32.95,-12.59L30.87,-10.95L29.02,-9.80L27.30,-9.08L25.58,-8.74L24.70,-8.70L23.43,-8.82L21.20,-9.74L19.54,-11.42L18.62,-13.70L18.50,-15.00L18.59,-15.99L19.23,-17.77L20.45,-19.22L22.15,-20.27L24.23,-20.83L25.40,-20.90L26.10,-20.87L27.59,-20.62L29.22,-20.10L31.02,-19.29L33.02,-18.18L34.10,-17.50Z   " class=""></path></g><g transform="translate(819.800,0)" fill="#000000" stroke="#000000" stroke-width="0"><path d="M3.60,0.00L33.00,0.00L33.00,-10.90L26.20,-10.90L26.20,-67.90L3.60,-67.90L3.60,-57.00L10.90,-57.00L10.90,-10.90L3.60,-10.90Z   " class=""></path></g><g transform="translate(855.200,0)" fill="#000000" stroke="#000000" stroke-width="0"><path d="" class=""></path></g><g transform="translate(880.200,0)" fill="#000000" stroke="#000000" stroke-width="0"><path d="M2.80,0.00L31.50,0.00L31.50,-11.50L22.60,-11.50L22.60,-56.40L24.20,-56.40L45.40,0.00L52.80,0.00L74.00,-56.40L75.60,-56.40L75.60,-11.50L66.70,-11.50L66.70,0.00L101.70,0.00L101.70,-11.50L92.80,-11.50L92.80,-56.40L101.60,-56.40L101.60,-67.90L67.20,-67.90L51.70,-28.10L36.80,-67.90L2.80,-67.90L2.80,-56.40L11.60,-56.40L11.60,-11.50L2.80,-11.50Z   " class=""></path></g><g transform="translate(984.400,0)" fill="#000000" stroke="#000000" stroke-width="0"><path d="M57.00,-10.90L49.40,-10.90L49.40,-30.30L49.37,-31.62L49.17,-34.11L48.75,-36.38L48.11,-38.44L47.25,-40.30L46.17,-41.96L44.86,-43.42L43.31,-44.68L41.52,-45.76L39.49,-46.64L37.21,-47.34L34.67,-47.86L31.88,-48.21L28.83,-48.38L27.20,-48.40L25.85,-48.38L23.27,-48.26L20.85,-48.01L18.59,-47.63L16.48,-47.11L14.52,-46.47L12.71,-45.69L11.05,-44.77L9.52,-43.72L8.13,-42.52L6.88,-41.18L5.75,-39.70L4.75,-38.07L4.30,-37.20L16.50,-35.10L17.30,-35.84L18.89,-37.05L20.50,-37.93L22.21,-38.49L24.08,-38.77L25.10,-38.80L26.41,-38.73L28.78,-38.19L30.78,-37.17L32.36,-35.71L33.45,-33.86L34.03,-31.69L34.10,-30.50L34.10,-27.90L32.99,-28.27L30.93,-28.93L28.94,-29.44L26.89,-29.79L24.64,-29.98L23.40,-30.00L22.11,-29.97L19.62,-29.74L17.27,-29.29L15.06,-28.63L13.02,-27.77L11.15,-26.72L9.46,-25.50L7.98,-24.12L6.71,-22.58L5.67,-20.91L4.86,-19.10L4.32,-17.18L4.04,-15.15L4.00,-14.10L4.05,-12.95L4.40,-10.76L5.09,-8.69L6.09,-6.79L7.38,-5.05L8.94,-3.51L10.74,-2.18L12.77,-1.08L14.99,-0.23L17.40,0.36L19.97,0.66L21.30,0.70L22.27,0.68L24.16,0.52L25.99,0.18L27.77,-0.34L29.55,-1.04L31.34,-1.95L33.17,-3.06L34.10,-3.70L34.10,0.00L57.00,0.00Z   M34.10,-17.50L34.10,-13.60L32.95,-12.59L30.87,-10.95L29.02,-9.80L27.30,-9.08L25.58,-8.74L24.70,-8.70L23.43,-8.82L21.20,-9.74L19.54,-11.42L18.62,-13.70L18.50,-15.00L18.59,-15.99L19.23,-17.77L20.45,-19.22L22.15,-20.27L24.23,-20.83L25.40,-20.90L26.10,-20.87L27.59,-20.62L29.22,-20.10L31.02,-19.29L33.02,-18.18L34.10,-17.50Z   " class=""></path></g><g transform="translate(1042.700,0)" fill="#000000" stroke="#000000" stroke-width="0"><path d="M19.00,-69.00L17.87,-68.93L15.78,-68.37L13.96,-67.31L12.49,-65.84L11.43,-64.02L10.87,-61.93L10.80,-60.80L10.87,-59.67L11.43,-57.56L12.49,-55.72L13.96,-54.22L15.78,-53.15L17.87,-52.58L19.00,-52.50L20.13,-52.58L22.24,-53.15L24.08,-54.22L25.58,-55.72L26.65,-57.56L27.22,-59.67L27.30,-60.80L27.22,-61.93L26.65,-64.02L25.58,-65.84L24.08,-67.31L22.24,-68.37L20.13,-68.93Z   " class=""></path><path d="M4.30,-36.40L11.20,-36.40L11.20,-10.90L4.30,-10.90L4.30,0.00L33.40,0.00L33.40,-10.90L26.50,-10.90L26.50,-47.30L4.30,-47.30Z   " class=""></path></g><g transform="translate(1078.100,0)" fill="#000000" stroke="#000000" stroke-width="0"><path d="M3.60,-36.40L10.90,-36.40L10.90,-10.90L3.60,-10.90L3.60,0.00L32.50,0.00L32.50,-10.90L26.20,-10.90L26.20,-32.20L27.25,-32.91L29.37,-34.06L31.47,-34.85L33.51,-35.25L34.50,-35.30L35.80,-35.17L37.75,-34.07L38.77,-31.71L38.90,-30.00L38.90,0.00L61.10,0.00L61.10,-10.90L54.20,-10.90L54.20,-31.90L54.15,-33.57L53.77,-36.59L53.06,-39.19L52.06,-41.39L50.81,-43.22L49.36,-44.71L47.76,-45.89L46.04,-46.78L44.26,-47.40L42.45,-47.80L40.67,-47.98L39.80,-48.00L38.78,-47.98L36.82,-47.79L34.91,-47.40L33.04,-46.80L31.15,-45.98L29.23,-44.93L27.24,-43.64L26.20,-42.90L26.20,-47.30L3.60,-47.30Z   " class=""></path></g><g transform="translate(1140.600,0)" fill="#000000" stroke="#000000" stroke-width="0"><path d="M1.90,-36.40L7.90,-36.40L7.90,-10.60L7.97,-9.09L8.54,-6.44L9.59,-4.26L11.05,-2.52L12.82,-1.18L14.84,-0.23L17.02,0.38L19.27,0.67L20.40,0.70L21.33,0.68L23.19,0.55L25.07,0.28L26.96,-0.12L28.85,-0.65L30.75,-1.32L31.70,-1.70L31.70,-11.90L30.32,-11.46L28.20,-11.04L27.10,-11.00L25.70,-11.08L23.95,-11.91L23.27,-14.11L23.20,-15.90L23.20,-36.40L31.70,-36.40L31.70,-47.30L23.20,-47.30L23.20,-65.50L7.90,-54.70L7.90,-47.30L1.90,-47.30Z   " class=""></path></g><g transform="translate(1175.000,0)" fill="#000000" stroke="#000000" stroke-width="0"><path d="M41.60,-14.20L40.54,-13.21L38.59,-11.57L36.81,-10.34L35.10,-9.49L33.39,-8.97L31.57,-8.73L30.60,-8.70L29.05,-8.77L26.34,-9.33L24.12,-10.35L22.34,-11.76L20.98,-13.46L20.00,-15.37L19.37,-17.41L19.05,-19.48L19.00,-20.50L53.60,-20.50L53.67,-21.83L53.65,-24.41L53.44,-26.88L53.04,-29.24L52.46,-31.49L51.71,-33.61L50.80,-35.61L49.73,-37.48L48.52,-39.22L47.17,-40.82L45.70,-42.29L44.10,-43.60L42.40,-44.77L40.59,-45.78L38.69,-46.63L36.70,-47.32L34.64,-47.84L32.51,-48.20L30.32,-48.38L29.20,-48.40L27.98,-48.38L25.59,-48.18L23.29,-47.79L21.08,-47.22L18.97,-46.48L16.97,-45.57L15.08,-44.50L13.31,-43.27L11.67,-41.89L10.16,-40.37L8.80,-38.72L7.58,-36.95L6.51,-35.05L5.60,-33.04L4.87,-30.93L4.30,-28.72L3.92,-26.41L3.72,-24.02L3.70,-22.80L3.72,-21.59L3.91,-19.24L4.28,-17.00L4.84,-14.88L5.57,-12.86L6.47,-10.97L7.53,-9.20L8.76,-7.56L10.15,-6.04L11.69,-4.67L13.38,-3.42L15.22,-2.32L17.20,-1.37L19.31,-0.57L21.56,0.08L23.93,0.58L26.43,0.91L29.05,1.08L30.40,1.10L31.58,1.08L33.87,0.94L36.08,0.66L38.20,0.24L40.24,-0.32L42.18,-1.02L44.03,-1.85L45.78,-2.82L47.43,-3.92L48.98,-5.15L50.43,-6.52L51.78,-8.01L53.02,-9.64L53.60,-10.50Z   M19.00,-28.90L19.23,-30.24L19.91,-32.61L20.87,-34.58L22.12,-36.14L23.66,-37.30L25.47,-38.07L27.56,-38.45L28.70,-38.50L29.85,-38.45L31.98,-38.02L33.85,-37.18L35.46,-35.95L36.78,-34.36L37.80,-32.41L38.48,-30.15L38.70,-28.90Z   " class=""></path></g><g transform="translate(1232.300,0)" fill="#000000" stroke="#000000" stroke-width="0"><path d="M3.60,-36.40L10.90,-36.40L10.90,-10.90L3.60,-10.90L3.60,0.00L32.50,0.00L32.50,-10.90L26.20,-10.90L26.20,-32.20L27.25,-32.91L29.37,-34.06L31.47,-34.85L33.51,-35.25L34.50,-35.30L35.80,-35.17L37.75,-34.07L38.77,-31.71L38.90,-30.00L38.90,0.00L61.10,0.00L61.10,-10.90L54.20,-10.90L54.20,-31.90L54.15,-33.57L53.77,-36.59L53.06,-39.19L52.06,-41.39L50.81,-43.22L49.36,-44.71L47.76,-45.89L46.04,-46.78L44.26,-47.40L42.45,-47.80L40.67,-47.98L39.80,-48.00L38.78,-47.98L36.82,-47.79L34.91,-47.40L33.04,-46.80L31.15,-45.98L29.23,-44.93L27.24,-43.64L26.20,-42.90L26.20,-47.30L3.60,-47.30Z   " class=""></path></g><g transform="translate(1294.800,0)" fill="#000000" stroke="#000000" stroke-width="0"><path d="M57.00,-10.90L49.40,-10.90L49.40,-30.30L49.37,-31.62L49.17,-34.11L48.75,-36.38L48.11,-38.44L47.25,-40.30L46.17,-41.96L44.86,-43.42L43.31,-44.68L41.52,-45.76L39.49,-46.64L37.21,-47.34L34.67,-47.86L31.88,-48.21L28.83,-48.38L27.20,-48.40L25.85,-48.38L23.27,-48.26L20.85,-48.01L18.59,-47.63L16.48,-47.11L14.52,-46.47L12.71,-45.69L11.05,-44.77L9.52,-43.72L8.13,-42.52L6.88,-41.18L5.75,-39.70L4.75,-38.07L4.30,-37.20L16.50,-35.10L17.30,-35.84L18.89,-37.05L20.50,-37.93L22.21,-38.49L24.08,-38.77L25.10,-38.80L26.41,-38.73L28.78,-38.19L30.78,-37.17L32.36,-35.71L33.45,-33.86L34.03,-31.69L34.10,-30.50L34.10,-27.90L32.99,-28.27L30.93,-28.93L28.94,-29.44L26.89,-29.79L24.64,-29.98L23.40,-30.00L22.11,-29.97L19.62,-29.74L17.27,-29.29L15.06,-28.63L13.02,-27.77L11.15,-26.72L9.46,-25.50L7.98,-24.12L6.71,-22.58L5.67,-20.91L4.86,-19.10L4.32,-17.18L4.04,-15.15L4.00,-14.10L4.05,-12.95L4.40,-10.76L5.09,-8.69L6.09,-6.79L7.38,-5.05L8.94,-3.51L10.74,-2.18L12.77,-1.08L14.99,-0.23L17.40,0.36L19.97,0.66L21.30,0.70L22.27,0.68L24.16,0.52L25.99,0.18L27.77,-0.34L29.55,-1.04L31.34,-1.95L33.17,-3.06L34.10,-3.70L34.10,0.00L57.00,0.00Z   M34.10,-17.50L34.10,-13.60L32.95,-12.59L30.87,-10.95L29.02,-9.80L27.30,-9.08L25.58,-8.74L24.70,-8.70L23.43,-8.82L21.20,-9.74L19.54,-11.42L18.62,-13.70L18.50,-15.00L18.59,-15.99L19.23,-17.77L20.45,-19.22L22.15,-20.27L24.23,-20.83L25.40,-20.90L26.10,-20.87L27.59,-20.62L29.22,-20.10L31.02,-19.29L33.02,-18.18L34.10,-17.50Z   " class=""></path></g><g transform="translate(1353.100,0)" fill="#000000" stroke="#000000" stroke-width="0"><path d="M3.60,-36.40L10.90,-36.40L10.90,-10.90L3.60,-10.90L3.60,0.00L32.50,0.00L32.50,-10.90L26.20,-10.90L26.20,-32.20L27.25,-32.91L29.37,-34.06L31.47,-34.85L33.51,-35.25L34.50,-35.30L35.80,-35.17L37.75,-34.07L38.77,-31.71L38.90,-30.00L38.90,0.00L61.10,0.00L61.10,-10.90L54.20,-10.90L54.20,-31.90L54.15,-33.57L53.77,-36.59L53.06,-39.19L52.06,-41.39L50.81,-43.22L49.36,-44.71L47.76,-45.89L46.04,-46.78L44.26,-47.40L42.45,-47.80L40.67,-47.98L39.80,-48.00L38.78,-47.98L36.82,-47.79L34.91,-47.40L33.04,-46.80L31.15,-45.98L29.23,-44.93L27.24,-43.64L26.20,-42.90L26.20,-47.30L3.60,-47.30Z   " class=""></path></g><g transform="translate(1415.600,0)" fill="#000000" stroke="#000000" stroke-width="0"><path d="M51.80,-47.30L41.40,-47.30L41.40,-43.40L40.49,-43.98L38.71,-45.01L36.96,-45.88L35.23,-46.60L33.49,-47.16L31.73,-47.58L29.93,-47.85L28.06,-47.98L27.10,-48.00L25.89,-47.97L23.54,-47.76L21.27,-47.35L19.10,-46.75L17.04,-45.96L15.08,-44.99L13.25,-43.85L11.55,-42.55L9.97,-41.10L8.55,-39.50L7.27,-37.77L6.15,-35.90L5.20,-33.92L4.43,-31.82L3.83,-29.62L3.43,-27.31L3.23,-24.93L3.20,-23.70L3.22,-22.46L3.42,-20.06L3.81,-17.76L4.38,-15.57L5.13,-13.50L6.05,-11.54L7.15,-9.70L8.40,-7.99L9.82,-6.41L11.39,-4.97L13.11,-3.67L14.97,-2.52L16.97,-1.51L19.10,-0.67L21.36,0.02L23.75,0.55L26.24,0.90L28.85,1.08L30.20,1.10L31.44,1.08L33.85,0.90L36.14,0.56L38.32,0.04L40.38,-0.64L42.33,-1.50L44.16,-2.52L45.87,-3.72L47.47,-5.07L48.93,-6.59L50.28,-8.28L51.50,-10.13L52.60,-12.14L53.10,-13.20L41.40,-18.40L40.79,-17.38L39.42,-15.53L37.86,-13.96L36.15,-12.66L34.32,-11.67L32.39,-10.99L30.40,-10.64L29.40,-10.60L28.18,-10.66L25.92,-11.12L23.95,-12.01L22.27,-13.32L20.89,-15.03L19.83,-17.10L19.11,-19.54L18.75,-22.30L18.70,-23.80L18.75,-25.16L19.14,-27.67L19.90,-29.91L21.02,-31.84L22.46,-33.43L24.21,-34.66L26.25,-35.51L28.55,-35.94L29.80,-36.00L30.90,-35.96L32.97,-35.63L34.89,-34.98L36.65,-34.00L38.23,-32.71L39.64,-31.10L40.86,-29.18L41.40,-28.10L51.80,-28.10Z   " class=""></path></g><g transform="translate(1471.900,0)" fill="#000000" stroke="#000000" stroke-width="0"><path d="M41.60,-14.20L40.54,-13.21L38.59,-11.57L36.81,-10.34L35.10,-9.49L33.39,-8.97L31.57,-8.73L30.60,-8.70L29.05,-8.77L26.34,-9.33L24.12,-10.35L22.34,-11.76L20.98,-13.46L20.00,-15.37L19.37,-17.41L19.05,-19.48L19.00,-20.50L53.60,-20.50L53.67,-21.83L53.65,-24.41L53.44,-26.88L53.04,-29.24L52.46,-31.49L51.71,-33.61L50.80,-35.61L49.73,-37.48L48.52,-39.22L47.17,-40.82L45.70,-42.29L44.10,-43.60L42.40,-44.77L40.59,-45.78L38.69,-46.63L36.70,-47.32L34.64,-47.84L32.51,-48.20L30.32,-48.38L29.20,-48.40L27.98,-48.38L25.59,-48.18L23.29,-47.79L21.08,-47.22L18.97,-46.48L16.97,-45.57L15.08,-44.50L13.31,-43.27L11.67,-41.89L10.16,-40.37L8.80,-38.72L7.58,-36.95L6.51,-35.05L5.60,-33.04L4.87,-30.93L4.30,-28.72L3.92,-26.41L3.72,-24.02L3.70,-22.80L3.72,-21.59L3.91,-19.24L4.28,-17.00L4.84,-14.88L5.57,-12.86L6.47,-10.97L7.53,-9.20L8.76,-7.56L10.15,-6.04L11.69,-4.67L13.38,-3.42L15.22,-2.32L17.20,-1.37L19.31,-0.57L21.56,0.08L23.93,0.58L26.43,0.91L29.05,1.08L30.40,1.10L31.58,1.08L33.87,0.94L36.08,0.66L38.20,0.24L40.24,-0.32L42.18,-1.02L44.03,-1.85L45.78,-2.82L47.43,-3.92L48.98,-5.15L50.43,-6.52L51.78,-8.01L53.02,-9.64L53.60,-10.50Z   M19.00,-28.90L19.23,-30.24L19.91,-32.61L20.87,-34.58L22.12,-36.14L23.66,-37.30L25.47,-38.07L27.56,-38.45L28.70,-38.50L29.85,-38.45L31.98,-38.02L33.85,-37.18L35.46,-35.95L36.78,-34.36L37.80,-32.41L38.48,-30.15L38.70,-28.90Z   " class=""></path></g></g></g><g transform="translate(0 20.429241732893317)"><g transform="scale(0.2355644519495796 0.2355644519495796) translate(-5.400000095367377 82)"><g transform="translate(0.000,0)" fill="#243665" stroke="#243665" stroke-width="0"><path d="M37.50,2.00L36.16,1.99L33.58,1.90L31.11,1.72L28.75,1.45L26.51,1.09L24.38,0.65L22.37,0.11L20.47,-0.52L18.69,-1.24L17.02,-2.04L15.47,-2.94L14.03,-3.92L13.35,-4.45L12.57,-5.11L11.14,-6.49L9.87,-7.95L8.76,-9.51L7.80,-11.16L7.01,-12.89L6.37,-14.72L5.90,-16.63L5.58,-18.63L5.42,-20.72L5.40,-21.80L5.42,-22.95L5.61,-25.17L5.99,-27.27L6.56,-29.25L7.31,-31.11L8.26,-32.86L9.39,-34.49L10.71,-36.00L12.22,-37.40L13.05,-38.05L13.76,-38.56L15.22,-39.52L16.77,-40.40L18.40,-41.19L20.10,-41.89L21.89,-42.51L23.75,-43.05L25.69,-43.50L27.71,-43.86L29.81,-44.14L31.98,-44.33L33.10,-44.40L33.10,-44.70L31.88,-44.87L29.53,-45.24L27.30,-45.67L25.21,-46.16L23.25,-46.70L21.41,-47.29L19.71,-47.94L18.13,-48.65L16.68,-49.41L15.36,-50.22L14.75,-50.65L14.03,-51.21L12.73,-52.46L11.61,-53.87L10.68,-55.44L9.94,-57.17L9.38,-59.07L9.01,-61.12L8.82,-63.33L8.80,-64.50L8.83,-65.68L9.11,-67.92L9.66,-70.01L10.49,-71.94L11.59,-73.71L12.97,-75.32L14.62,-76.78L15.55,-77.45L16.24,-77.89L17.70,-78.71L19.26,-79.44L20.93,-80.08L22.71,-80.62L24.59,-81.08L26.59,-81.44L28.68,-81.72L30.89,-81.90L33.20,-81.99L34.40,-82.00L35.54,-81.98L37.75,-81.82L39.85,-81.50L41.84,-81.02L43.72,-80.39L45.49,-79.59L47.16,-78.64L47.95,-78.10L48.82,-77.43L50.33,-75.99L51.55,-74.40L52.45,-72.67L53.06,-70.79L53.36,-68.77L53.40,-67.70L53.35,-66.64L52.94,-64.76L52.12,-63.21L51.55,-62.55L50.59,-61.74L48.47,-60.82L47.30,-60.70L46.10,-60.79L44.00,-61.54L43.10,-62.20L42.36,-63.04L41.51,-65.24L41.40,-66.60L42.38,-67.11L43.96,-68.38L45.01,-69.95L45.53,-71.84L45.60,-72.90L45.53,-73.90L44.93,-75.69L43.72,-77.20L42.90,-77.85L42.19,-78.28L40.59,-78.98L38.74,-79.44L36.64,-79.67L35.50,-79.70L34.39,-79.67L32.27,-79.45L30.31,-79.01L28.50,-78.34L26.85,-77.45L25.34,-76.34L24.65,-75.70L24.00,-75.01L22.88,-73.53L21.98,-71.90L21.30,-70.11L20.85,-68.18L20.63,-66.10L20.60,-65.00L20.62,-63.82L20.80,-61.58L21.15,-59.49L21.68,-57.57L22.39,-55.80L23.27,-54.19L24.33,-52.73L25.57,-51.44L26.25,-50.85L26.89,-50.36L28.28,-49.44L29.79,-48.63L31.44,-47.91L33.21,-47.29L35.12,-46.76L37.15,-46.34L39.31,-46.01L41.61,-45.78L42.80,-45.70L42.80,-43.50L41.51,-43.41L39.03,-43.13L36.70,-42.74L34.51,-42.23L32.46,-41.60L30.56,-40.85L28.81,-39.99L27.20,-39.00L25.73,-37.90L25.05,-37.30L24.33,-36.59L23.03,-35.08L21.91,-33.42L20.98,-31.63L20.24,-29.69L19.68,-27.61L19.31,-25.39L19.12,-23.03L19.10,-21.80L19.12,-20.70L19.26,-18.57L19.54,-16.54L19.97,-14.61L20.53,-12.79L21.24,-11.07L21.65,-10.25L22.18,-9.30L23.34,-7.55L24.65,-5.98L26.10,-4.59L27.70,-3.38L28.55,-2.85L29.43,-2.37L31.25,-1.55L33.16,-0.94L35.15,-0.53L37.23,-0.33L38.30,-0.30L39.44,-0.33L41.63,-0.53L43.70,-0.93L45.65,-1.54L47.47,-2.35L49.18,-3.36L50.76,-4.57L51.50,-5.25L52.12,-5.89L53.23,-7.26L54.19,-8.77L54.99,-10.41L55.62,-12.20L56.10,-14.11L56.42,-16.17L56.58,-18.35L56.60,-19.50L56.58,-20.43L56.45,-22.35L56.17,-24.32L55.76,-26.36L55.50,-27.40L51.60,-28.00L50.50,-28.21L48.49,-28.55L46.72,-28.77L45.18,-28.89L44.50,-28.90L43.45,-28.88L41.48,-28.72L39.69,-28.39L38.09,-27.90L37.35,-27.60L36.48,-27.12L35.21,-25.90L34.58,-24.32L34.50,-23.40L34.73,-22.18L35.40,-21.30L36.42,-20.77L37.70,-20.60L39.00,-20.78L40.30,-21.30L41.42,-22.15L42.20,-23.30L43.33,-22.95L45.15,-21.92L45.85,-21.25L46.40,-20.49L47.02,-18.77L47.10,-17.80L46.99,-16.64L46.12,-14.54L45.35,-13.60L44.42,-12.81L42.25,-11.91L41.00,-11.80L40.07,-11.85L38.33,-12.26L36.76,-13.09L35.35,-14.33L34.70,-15.10L34.11,-15.95L33.18,-17.79L32.55,-19.81L32.24,-22.02L32.20,-23.20L32.23,-24.17L32.47,-26.04L32.94,-27.84L33.65,-29.57L34.10,-30.40L34.60,-31.20L35.77,-32.69L37.16,-34.00L38.76,-35.14L39.65,-35.65L40.58,-36.11L42.56,-36.84L44.70,-37.33L46.99,-37.57L48.20,-37.60L49.01,-37.59L50.70,-37.54L52.48,-37.43L54.34,-37.26L56.30,-37.04L58.34,-36.76L59.40,-36.60L60.63,-36.39L62.92,-36.05L65.03,-35.83L66.92,-35.71L67.80,-35.70L68.95,-35.72L71.06,-35.90L72.95,-36.27L74.61,-36.81L75.35,-37.15L76.60,-37.95L78.02,-39.97L78.20,-41.20L77.99,-42.44L77.35,-43.35L76.36,-43.91L75.10,-44.10L73.74,-43.93L72.45,-43.40L71.36,-42.53L70.60,-41.30L69.43,-41.65L67.58,-42.68L66.90,-43.35L66.38,-44.11L65.78,-45.83L65.70,-46.80L65.81,-47.96L66.68,-50.06L67.45,-51.00L68.38,-51.79L70.55,-52.69L71.80,-52.80L73.03,-52.72L75.24,-52.06L77.13,-50.75L77.95,-49.85L78.50,-49.09L79.38,-47.41L79.97,-45.52L80.26,-43.42L80.30,-42.30L80.27,-40.91L80.02,-38.31L79.53,-35.97L78.78,-33.90L77.79,-32.08L76.55,-30.52L75.06,-29.23L73.33,-28.19L71.34,-27.41L69.11,-26.89L66.63,-26.63L65.30,-26.60L64.25,-26.61L62.29,-26.66L60.51,-26.76L58.92,-26.91L58.20,-27.00L58.39,-26.01L58.69,-24.10L58.89,-22.27L58.99,-20.54L59.00,-19.70L58.98,-18.57L58.84,-16.39L58.55,-14.33L58.12,-12.38L57.55,-10.55L56.83,-8.83L55.97,-7.22L54.97,-5.73L53.83,-4.35L53.20,-3.70L52.46,-3.01L50.88,-1.76L49.17,-0.69L47.34,0.20L45.38,0.91L43.29,1.44L41.07,1.80L38.72,1.98L37.50,2.00Z   " class=""></path></g><g transform="translate(82.100,0)" fill="#243665" stroke="#243665" stroke-width="0"><path d="" class=""></path></g><g transform="translate(106.000,0)" fill="#243665" stroke="#243665" stroke-width="0"><path d="M4.00,0.00L4.00,-2.10L13.20,-3.60L13.20,-76.40L4.00,-77.80L4.00,-80.00L35.40,-80.00L36.73,-79.99L39.30,-79.88L41.73,-79.67L44.05,-79.36L46.24,-78.95L48.30,-78.42L50.24,-77.80L52.05,-77.07L53.73,-76.24L55.30,-75.30L56.73,-74.26L57.40,-73.70L58.10,-73.06L59.40,-71.68L60.55,-70.20L61.56,-68.60L62.42,-66.90L63.14,-65.08L63.72,-63.14L64.15,-61.10L64.44,-58.94L64.58,-56.68L64.60,-55.50L64.58,-54.32L64.44,-52.06L64.15,-49.90L63.72,-47.86L63.14,-45.92L62.42,-44.10L61.56,-42.40L60.55,-40.80L59.40,-39.32L58.10,-37.94L57.40,-37.30L56.73,-36.74L55.30,-35.70L53.73,-34.76L52.05,-33.93L50.24,-33.20L48.30,-32.58L46.24,-32.05L44.05,-31.64L41.73,-31.33L39.30,-31.12L36.73,-31.01L35.40,-31.00L24.20,-31.00L24.20,-3.60L33.40,-2.10L33.40,0.00L4.00,0.00Z   M24.20,-33.40L34.00,-33.40L35.30,-33.43L37.75,-33.63L40.02,-34.04L42.09,-34.66L43.98,-35.48L45.68,-36.50L47.19,-37.73L48.51,-39.17L49.64,-40.81L50.59,-42.66L51.34,-44.71L51.91,-46.96L52.29,-49.42L52.48,-52.09L52.50,-53.50L52.50,-57.50L52.48,-58.90L52.29,-61.56L51.91,-64.01L51.34,-66.25L50.59,-68.29L49.64,-70.13L48.51,-71.76L47.19,-73.19L45.68,-74.41L43.98,-75.43L42.09,-76.25L40.02,-76.86L37.75,-77.27L35.30,-77.47L34.00,-77.50L24.20,-77.50L24.20,-33.40Z   " class=""></path></g><g transform="translate(174.400,0)" fill="#243665" stroke="#243665" stroke-width="0"><path d="M2.70,0.00L2.70,-2.00L9.70,-3.00L9.70,-48.80L2.70,-49.80L2.70,-51.80L19.70,-51.80L19.70,-44.10L20.49,-45.14L22.12,-47.02L23.79,-48.64L25.52,-49.98L27.29,-51.05L29.12,-51.86L30.99,-52.40L32.92,-52.67L33.90,-52.70L35.14,-52.65L37.48,-52.21L39.61,-51.35L40.60,-50.75L41.49,-50.05L42.77,-48.39L43.42,-46.35L43.50,-45.20L43.39,-43.95L42.54,-41.78L41.80,-40.85L40.88,-40.08L38.63,-39.21L37.30,-39.10L36.27,-39.17L34.40,-39.73L32.80,-40.84L32.10,-41.60L32.58,-42.31L33.13,-43.81L33.20,-44.60L32.91,-46.14L32.05,-47.35L31.43,-47.81L29.90,-48.33L29.00,-48.40L27.94,-48.28L25.79,-47.30L24.70,-46.45L24.14,-45.93L22.97,-44.69L21.72,-43.17L20.39,-41.39L19.70,-40.40L19.70,-3.00L27.70,-2.00L27.70,0.00L2.70,0.00Z   " class=""></path></g><g transform="translate(218.600,0)" fill="#243665" stroke="#243665" stroke-width="0"><path d="M30.20,1.00L29.18,0.98L27.17,0.85L25.22,0.57L23.32,0.16L21.48,-0.38L19.69,-1.07L17.95,-1.89L17.10,-2.35L16.27,-2.84L14.68,-3.91L13.20,-5.10L11.81,-6.40L10.53,-7.81L9.34,-9.34L8.26,-10.99L7.75,-11.85L7.27,-12.74L6.43,-14.57L5.73,-16.47L5.16,-18.44L4.74,-20.48L4.46,-22.59L4.32,-24.78L4.30,-25.90L4.32,-27.02L4.46,-29.20L4.74,-31.31L5.16,-33.35L5.73,-35.31L6.43,-37.20L7.27,-39.02L7.75,-39.90L8.26,-40.76L9.34,-42.39L10.53,-43.91L11.81,-45.31L13.20,-46.61L14.68,-47.79L16.27,-48.86L17.10,-49.35L17.95,-49.81L19.69,-50.63L21.48,-51.32L23.32,-51.86L25.22,-52.27L27.17,-52.55L29.18,-52.68L30.20,-52.70L31.22,-52.68L33.23,-52.55L35.18,-52.27L37.07,-51.86L38.92,-51.32L40.71,-50.63L42.45,-49.81L43.30,-49.35L44.13,-48.86L45.72,-47.79L47.20,-46.61L48.59,-45.31L49.87,-43.91L51.06,-42.39L52.14,-40.76L52.65,-39.90L53.13,-39.02L53.97,-37.20L54.67,-35.31L55.24,-33.35L55.66,-31.31L55.94,-29.20L56.08,-27.02L56.10,-25.90L56.08,-24.78L55.94,-22.59L55.66,-20.48L55.24,-18.44L54.67,-16.47L53.97,-14.57L53.13,-12.74L52.65,-11.85L52.14,-10.99L51.06,-9.34L49.87,-7.81L48.59,-6.40L47.20,-5.10L45.72,-3.91L44.13,-2.84L43.30,-2.35L42.45,-1.89L40.71,-1.07L38.92,-0.38L37.07,0.16L35.18,0.57L33.23,0.85L31.22,0.98L30.20,1.00Z   M30.20,-1.20L31.41,-1.24L33.67,-1.54L35.73,-2.14L37.59,-3.04L39.25,-4.24L40.70,-5.74L41.35,-6.60L41.87,-7.39L42.78,-9.07L43.55,-10.90L44.16,-12.87L44.62,-14.99L44.93,-17.25L45.08,-19.65L45.10,-20.90L45.10,-30.90L45.08,-32.15L44.93,-34.55L44.62,-36.80L44.16,-38.91L43.55,-40.88L42.78,-42.69L41.87,-44.37L41.35,-45.15L40.70,-46.00L39.25,-47.49L37.59,-48.68L35.73,-49.57L33.67,-50.17L31.41,-50.46L30.20,-50.50L28.99,-50.46L26.73,-50.17L24.67,-49.57L22.81,-48.68L21.15,-47.49L19.70,-46.00L19.05,-45.15L18.53,-44.37L17.62,-42.69L16.85,-40.88L16.24,-38.91L15.78,-36.80L15.47,-34.55L15.32,-32.15L15.30,-30.90L15.30,-20.90L15.32,-19.65L15.47,-17.25L15.78,-14.99L16.24,-12.87L16.85,-10.90L17.62,-9.08L18.53,-7.39L19.05,-6.60L19.70,-5.74L21.15,-4.24L22.81,-3.04L24.67,-2.14L26.73,-1.54L28.99,-1.24L30.20,-1.20Z   " class=""></path></g><g transform="translate(279.000,0)" fill="#243665" stroke="#243665" stroke-width="0"><path d="M2.10,28.30L2.10,26.30L9.10,25.30L9.10,-48.70L2.10,-49.70L2.10,-51.70L19.10,-51.70L19.10,-41.20L19.62,-42.26L20.76,-44.23L22.04,-46.01L23.46,-47.61L25.02,-49.02L25.85,-49.65L26.72,-50.23L28.55,-51.21L30.51,-51.94L32.61,-52.43L34.84,-52.67L36.00,-52.70L37.17,-52.68L39.44,-52.49L41.62,-52.12L43.70,-51.56L45.69,-50.82L47.59,-49.89L48.50,-49.35L49.38,-48.77L51.05,-47.51L52.58,-46.09L53.98,-44.52L55.25,-42.81L56.38,-40.94L56.90,-39.95L57.31,-39.08L58.05,-37.26L58.66,-35.37L59.15,-33.39L59.52,-31.32L59.76,-29.18L59.88,-26.95L59.90,-25.80L59.88,-24.65L59.76,-22.42L59.52,-20.28L59.15,-18.21L58.66,-16.23L58.05,-14.34L57.31,-12.52L56.90,-11.65L56.38,-10.66L55.25,-8.80L53.98,-7.09L52.58,-5.53L51.05,-4.12L49.38,-2.87L48.50,-2.30L47.59,-1.77L45.69,-0.86L43.70,-0.12L41.62,0.43L39.44,0.79L37.17,0.98L36.00,1.00L34.84,0.97L32.61,0.73L30.51,0.24L28.55,-0.49L26.72,-1.47L25.85,-2.05L25.02,-2.68L23.46,-4.08L22.04,-5.66L20.76,-7.42L19.62,-9.36L19.10,-10.40L19.10,25.30L28.50,26.30L28.50,28.30L2.10,28.30Z   M35.00,-1.50L36.13,-1.53L38.26,-1.80L40.19,-2.34L41.93,-3.14L43.47,-4.21L44.82,-5.55L45.98,-7.16L46.95,-9.04L47.72,-11.18L48.30,-13.60L48.68,-16.28L48.88,-19.23L48.90,-20.80L48.90,-30.80L48.88,-32.38L48.68,-35.35L48.30,-38.04L47.72,-40.47L46.95,-42.62L45.98,-44.51L44.82,-46.12L43.47,-47.47L41.93,-48.55L40.19,-49.36L38.26,-49.90L36.13,-50.17L35.00,-50.20L33.91,-50.16L31.81,-49.84L29.81,-49.20L27.91,-48.25L27.00,-47.65L26.12,-46.99L24.51,-45.49L23.09,-43.78L21.85,-41.85L21.30,-40.80L20.90,-39.93L20.22,-38.16L19.70,-36.33L19.34,-34.44L19.14,-32.49L19.10,-31.50L19.10,-20.80L19.12,-19.79L19.28,-17.80L19.61,-15.86L20.10,-13.98L20.76,-12.15L21.15,-11.25L21.58,-10.38L22.52,-8.74L23.60,-7.25L24.80,-5.90L26.14,-4.70L26.85,-4.15L27.78,-3.53L29.71,-2.54L31.74,-1.87L33.89,-1.54L35.00,-1.50Z   " class=""></path></g><g transform="translate(343.200,0)" fill="#243665" stroke="#243665" stroke-width="0"><path d="M30.70,1.00L29.65,0.98L27.59,0.85L25.59,0.57L23.65,0.16L21.76,-0.38L19.94,-1.07L18.16,-1.89L17.30,-2.35L16.46,-2.84L14.84,-3.91L13.33,-5.09L11.92,-6.39L10.62,-7.79L9.41,-9.31L8.31,-10.94L7.80,-11.80L7.32,-12.68L6.46,-14.50L5.75,-16.40L5.17,-18.37L4.75,-20.43L4.46,-22.56L4.32,-24.77L4.30,-25.90L4.32,-27.03L4.46,-29.24L4.74,-31.37L5.16,-33.41L5.73,-35.38L6.43,-37.27L7.27,-39.08L7.75,-39.95L8.26,-40.80L9.34,-42.42L10.52,-43.93L11.80,-45.32L13.18,-46.61L14.65,-47.79L16.23,-48.86L17.05,-49.35L17.89,-49.81L19.62,-50.63L21.40,-51.32L23.24,-51.86L25.13,-52.27L27.08,-52.55L29.08,-52.68L30.10,-52.70L31.14,-52.68L33.17,-52.53L35.12,-52.21L37.01,-51.75L38.82,-51.13L40.56,-50.35L41.40,-49.90L42.38,-49.32L44.20,-48.03L45.85,-46.56L47.32,-44.93L48.62,-43.12L49.20,-42.15L49.65,-41.31L50.43,-39.58L51.06,-37.77L51.55,-35.88L51.88,-33.91L52.06,-31.86L52.10,-30.80L15.30,-30.80L15.30,-20.90L15.32,-19.66L15.48,-17.28L15.80,-15.04L16.29,-12.94L16.93,-10.97L17.74,-9.14L18.71,-7.45L19.25,-6.65L19.93,-5.78L21.45,-4.27L23.16,-3.05L25.07,-2.15L27.17,-1.54L29.47,-1.24L30.70,-1.20L31.84,-1.23L34.05,-1.44L36.17,-1.88L38.21,-2.53L40.15,-3.39L42.01,-4.48L42.90,-5.10L43.75,-5.77L45.29,-7.19L46.60,-8.75L47.69,-10.43L48.54,-12.24L49.17,-14.18L49.40,-15.20L51.70,-15.20L51.48,-14.16L50.90,-12.17L50.15,-10.30L49.22,-8.55L48.12,-6.93L46.85,-5.42L45.39,-4.04L44.60,-3.40L43.77,-2.79L42.04,-1.72L40.21,-0.82L38.27,-0.10L36.24,0.44L34.10,0.80L31.86,0.98L30.70,1.00Z   M15.40,-33.30L41.10,-33.30L41.09,-34.52L40.98,-36.82L40.76,-38.95L40.42,-40.89L39.98,-42.65L39.43,-44.22L38.77,-45.62L38.40,-46.25L37.83,-47.06L36.51,-48.42L34.95,-49.44L33.15,-50.12L31.11,-50.46L30.00,-50.50L28.90,-50.47L26.84,-50.21L24.94,-49.68L23.20,-48.90L21.64,-47.86L20.24,-46.55L19.60,-45.80L19.09,-45.11L18.16,-43.64L17.37,-42.05L16.70,-40.32L16.17,-38.48L15.76,-36.50L15.49,-34.40L15.40,-33.30Z   " class=""></path></g><g transform="translate(399.300,0)" fill="#243665" stroke="#243665" stroke-width="0"><path d="M2.70,0.00L2.70,-2.00L9.70,-3.00L9.70,-48.80L2.70,-49.80L2.70,-51.80L19.70,-51.80L19.70,-44.10L20.49,-45.14L22.12,-47.02L23.79,-48.64L25.52,-49.98L27.29,-51.05L29.12,-51.86L30.99,-52.40L32.92,-52.67L33.90,-52.70L35.14,-52.65L37.48,-52.21L39.61,-51.35L40.60,-50.75L41.49,-50.05L42.77,-48.39L43.42,-46.35L43.50,-45.20L43.39,-43.95L42.54,-41.78L41.80,-40.85L40.88,-40.08L38.63,-39.21L37.30,-39.10L36.27,-39.17L34.40,-39.73L32.80,-40.84L32.10,-41.60L32.58,-42.31L33.13,-43.81L33.20,-44.60L32.91,-46.14L32.05,-47.35L31.43,-47.81L29.90,-48.33L29.00,-48.40L27.94,-48.28L25.79,-47.30L24.70,-46.45L24.14,-45.93L22.97,-44.69L21.72,-43.17L20.39,-41.39L19.70,-40.40L19.70,-3.00L27.70,-2.00L27.70,0.00L2.70,0.00Z   " class=""></path></g><g transform="translate(443.500,0)" fill="#243665" stroke="#243665" stroke-width="0"><path d="M23.40,1.00L22.32,0.98L20.27,0.79L18.36,0.43L16.60,-0.12L14.99,-0.86L13.53,-1.77L12.85,-2.30L12.22,-2.88L11.12,-4.19L10.24,-5.73L9.59,-7.48L9.15,-9.44L8.93,-11.63L8.90,-12.80L8.90,-48.80L1.80,-49.80L1.80,-51.80L8.90,-51.80L8.90,-60.10L18.90,-62.60L18.90,-51.80L31.90,-51.80L31.90,-49.80L18.90,-48.80L18.90,-13.00L18.94,-11.54L19.25,-8.94L19.87,-6.78L20.80,-5.05L22.04,-3.75L23.59,-2.89L25.45,-2.45L26.50,-2.40L27.29,-2.43L28.82,-2.68L29.55,-2.90L30.85,-3.40L31.85,-3.90L32.54,-4.33L32.90,-4.60L34.20,-3.00L33.44,-2.36L31.84,-1.25L30.14,-0.36L28.34,0.31L26.44,0.75L24.44,0.97L23.40,1.00Z   " class=""></path></g><g transform="translate(478.200,0)" fill="#243665" stroke="#243665" stroke-width="0"><path d="M11.80,29.20L10.53,29.16L8.18,28.83L6.08,28.18L4.23,27.21L3.40,26.60L2.65,25.92L1.45,24.40L0.65,22.65L0.25,20.67L0.20,19.60L0.25,18.63L0.64,16.89L1.42,15.40L1.95,14.75L2.88,13.94L5.05,13.02L6.30,12.90L7.22,12.95L8.92,13.35L9.70,13.70L10.41,14.15L11.61,15.35L12.10,16.10L11.44,17.16L10.69,19.36L10.60,20.50L10.68,21.46L11.33,23.11L11.90,23.80L12.59,24.37L14.24,25.02L15.20,25.10L16.36,25.00L18.43,24.20L19.35,23.50L19.92,22.90L21.01,21.30L22.02,19.17L22.50,17.90L28.50,0.70L5.30,-48.70L-1.40,-49.70L-1.40,-51.70L23.50,-51.70L23.50,-49.70L16.50,-48.50L33.20,-12.80L45.10,-47.20L36.50,-49.70L36.50,-51.70L54.50,-51.70L54.50,-49.70L47.70,-47.20L25.30,17.90L24.87,19.05L23.96,21.15L22.99,23.00L21.94,24.59L20.83,25.93L20.25,26.50L19.47,27.13L17.68,28.15L15.57,28.82L13.14,29.16L11.80,29.20Z   " class=""></path></g><g transform="translate(531.700,0)" fill="#243665" stroke="#243665" stroke-width="0"><path d="" class=""></path></g><g transform="translate(555.600,0)" fill="#243665" stroke="#243665" stroke-width="0"><path d="M35.70,2.00L34.77,1.99L32.92,1.88L31.07,1.67L29.23,1.35L27.39,0.93L25.56,0.40L23.74,-0.24L21.92,-0.98L20.11,-1.83L18.30,-2.78L17.40,-3.30L8.90,1.00L6.70,1.00L6.70,-24.70L8.90,-24.70L17.50,-6.10L18.34,-5.52L20.04,-4.46L21.80,-3.52L23.60,-2.69L25.46,-1.98L27.36,-1.39L29.30,-0.92L31.30,-0.57L33.34,-0.33L35.44,-0.21L36.50,-0.20L37.59,-0.22L39.69,-0.36L41.70,-0.65L43.62,-1.09L45.43,-1.67L47.16,-2.40L48.79,-3.27L50.32,-4.29L51.05,-4.85L51.84,-5.53L53.25,-7.02L54.42,-8.65L55.36,-10.44L56.07,-12.38L56.54,-14.47L56.77,-16.72L56.80,-17.90L56.76,-19.09L56.47,-21.33L55.87,-23.36L54.99,-25.19L53.80,-26.81L53.10,-27.55L52.55,-28.05L51.30,-29.00L49.87,-29.90L48.25,-30.74L46.44,-31.52L44.45,-32.23L42.26,-32.89L41.10,-33.20L24.50,-37.50L23.43,-37.80L21.39,-38.48L19.48,-39.25L17.71,-40.13L16.07,-41.12L14.57,-42.20L13.20,-43.38L11.97,-44.67L11.40,-45.35L10.79,-46.15L9.72,-47.82L8.82,-49.58L8.10,-51.41L7.56,-53.33L7.20,-55.34L7.02,-57.42L7.00,-58.50L7.02,-59.64L7.17,-61.85L7.48,-63.98L7.94,-66.02L8.55,-67.98L9.31,-69.85L9.75,-70.75L10.23,-71.62L11.28,-73.27L12.48,-74.79L13.83,-76.17L15.31,-77.42L16.93,-78.54L17.80,-79.05L18.70,-79.52L20.58,-80.34L22.56,-81.00L24.66,-81.49L26.88,-81.82L29.20,-81.98L30.40,-82.00L31.53,-81.99L33.75,-81.89L35.90,-81.70L38.00,-81.41L40.04,-81.02L42.01,-80.53L43.93,-79.95L45.79,-79.28L46.70,-78.90L54.00,-82.00L56.20,-82.00L56.20,-61.60L54.00,-61.60L46.80,-76.20L45.86,-76.64L43.94,-77.42L41.99,-78.10L39.99,-78.66L37.95,-79.11L35.87,-79.45L33.75,-79.67L31.59,-79.79L30.50,-79.80L29.28,-79.78L26.94,-79.60L24.76,-79.23L22.72,-78.69L20.84,-77.96L19.11,-77.05L17.53,-75.96L16.80,-75.35L16.00,-74.59L14.61,-72.95L13.50,-71.15L12.67,-69.19L12.11,-67.07L11.83,-64.80L11.80,-63.60L11.84,-62.54L12.12,-60.57L12.69,-58.77L13.54,-57.17L14.68,-55.74L15.35,-55.10L15.96,-54.59L17.33,-53.63L18.89,-52.74L20.63,-51.93L22.56,-51.18L24.67,-50.51L25.80,-50.20L43.70,-45.50L44.92,-45.17L47.22,-44.41L49.35,-43.53L51.29,-42.51L53.05,-41.37L54.62,-40.10L56.02,-38.70L56.65,-37.95L57.16,-37.26L58.09,-35.75L58.89,-34.06L59.56,-32.21L60.09,-30.18L60.48,-27.97L60.75,-25.59L60.88,-23.04L60.90,-21.70L60.88,-20.48L60.71,-18.13L60.37,-15.90L59.86,-13.79L59.19,-11.80L58.34,-9.93L57.33,-8.17L56.14,-6.53L54.79,-5.01L54.05,-4.30L53.35,-3.69L51.89,-2.55L50.33,-1.54L48.69,-0.66L46.94,0.09L45.11,0.72L43.18,1.23L41.16,1.61L39.05,1.86L36.84,1.98L35.70,2.00Z   " class=""></path></g><g transform="translate(622.200,0)" fill="#243665" stroke="#243665" stroke-width="0"><path d="M30.20,1.00L29.18,0.98L27.17,0.85L25.22,0.57L23.32,0.16L21.48,-0.38L19.69,-1.07L17.95,-1.89L17.10,-2.35L16.27,-2.84L14.68,-3.91L13.20,-5.10L11.81,-6.40L10.53,-7.81L9.34,-9.34L8.26,-10.99L7.75,-11.85L7.27,-12.74L6.43,-14.57L5.73,-16.47L5.16,-18.44L4.74,-20.48L4.46,-22.59L4.32,-24.78L4.30,-25.90L4.32,-27.02L4.46,-29.20L4.74,-31.31L5.16,-33.35L5.73,-35.31L6.43,-37.20L7.27,-39.02L7.75,-39.90L8.26,-40.76L9.34,-42.39L10.53,-43.91L11.81,-45.31L13.20,-46.61L14.68,-47.79L16.27,-48.86L17.10,-49.35L17.95,-49.81L19.69,-50.63L21.48,-51.32L23.32,-51.86L25.22,-52.27L27.17,-52.55L29.18,-52.68L30.20,-52.70L31.22,-52.68L33.23,-52.55L35.18,-52.27L37.07,-51.86L38.92,-51.32L40.71,-50.63L42.45,-49.81L43.30,-49.35L44.13,-48.86L45.72,-47.79L47.20,-46.61L48.59,-45.31L49.87,-43.91L51.06,-42.39L52.14,-40.76L52.65,-39.90L53.13,-39.02L53.97,-37.20L54.67,-35.31L55.24,-33.35L55.66,-31.31L55.94,-29.20L56.08,-27.02L56.10,-25.90L56.08,-24.78L55.94,-22.59L55.66,-20.48L55.24,-18.44L54.67,-16.47L53.97,-14.57L53.13,-12.74L52.65,-11.85L52.14,-10.99L51.06,-9.34L49.87,-7.81L48.59,-6.40L47.20,-5.10L45.72,-3.91L44.13,-2.84L43.30,-2.35L42.45,-1.89L40.71,-1.07L38.92,-0.38L37.07,0.16L35.18,0.57L33.23,0.85L31.22,0.98L30.20,1.00Z   M30.20,-1.20L31.41,-1.24L33.67,-1.54L35.73,-2.14L37.59,-3.04L39.25,-4.24L40.70,-5.74L41.35,-6.60L41.87,-7.39L42.78,-9.07L43.55,-10.90L44.16,-12.87L44.62,-14.99L44.93,-17.25L45.08,-19.65L45.10,-20.90L45.10,-30.90L45.08,-32.15L44.93,-34.55L44.62,-36.80L44.16,-38.91L43.55,-40.88L42.78,-42.69L41.87,-44.37L41.35,-45.15L40.70,-46.00L39.25,-47.49L37.59,-48.68L35.73,-49.57L33.67,-50.17L31.41,-50.46L30.20,-50.50L28.99,-50.46L26.73,-50.17L24.67,-49.57L22.81,-48.68L21.15,-47.49L19.70,-46.00L19.05,-45.15L18.53,-44.37L17.62,-42.69L16.85,-40.88L16.24,-38.91L15.78,-36.80L15.47,-34.55L15.32,-32.15L15.30,-30.90L15.30,-20.90L15.32,-19.65L15.47,-17.25L15.78,-14.99L16.24,-12.87L16.85,-10.90L17.62,-9.08L18.53,-7.39L19.05,-6.60L19.70,-5.74L21.15,-4.24L22.81,-3.04L24.67,-2.14L26.73,-1.54L28.99,-1.24L30.20,-1.20Z   " class=""></path></g><g transform="translate(682.600,0)" fill="#243665" stroke="#243665" stroke-width="0"><path d="M26.50,0.00L2.00,0.00L2.00,-2.00L9.50,-3.00L9.50,-77.00L2.00,-78.00L2.00,-80.00L19.50,-80.00L19.50,-3.00L26.50,-2.00L26.50,0.00Z   " class=""></path></g><g transform="translate(711.200,0)" fill="#243665" stroke="#243665" stroke-width="0"><path d="M24.20,1.00L23.02,0.97L20.79,0.78L18.73,0.38L16.84,-0.22L15.12,-1.02L13.56,-2.02L12.85,-2.60L12.19,-3.22L11.03,-4.62L10.11,-6.21L9.42,-7.99L8.96,-9.97L8.73,-12.14L8.70,-13.30L8.70,-48.80L1.70,-49.80L1.70,-51.80L18.70,-51.80L18.70,-13.50L18.73,-12.26L19.00,-9.98L19.52,-7.98L20.31,-6.26L20.80,-5.50L21.36,-4.82L22.70,-3.73L24.32,-3.01L26.24,-2.65L27.30,-2.60L28.22,-2.63L30.03,-2.87L31.81,-3.36L33.57,-4.09L35.30,-5.07L36.15,-5.65L36.99,-6.27L38.61,-7.61L40.16,-9.06L41.63,-10.63L43.03,-12.31L43.70,-13.20L43.70,-48.80L36.70,-49.80L36.70,-51.80L53.70,-51.80L53.70,-3.00L60.70,-2.00L60.70,0.00L43.70,0.00L43.70,-9.60L43.09,-8.78L41.81,-7.24L40.45,-5.82L39.01,-4.52L37.48,-3.34L35.88,-2.28L35.05,-1.80L34.20,-1.35L32.48,-0.58L30.71,0.05L28.90,0.51L27.05,0.82L25.16,0.98L24.20,1.00Z   " class=""></path></g><g transform="translate(774.400,0)" fill="#243665" stroke="#243665" stroke-width="0"><path d="M23.40,1.00L22.32,0.98L20.27,0.79L18.36,0.43L16.60,-0.12L14.99,-0.86L13.53,-1.77L12.85,-2.30L12.22,-2.88L11.12,-4.19L10.24,-5.73L9.59,-7.48L9.15,-9.44L8.93,-11.63L8.90,-12.80L8.90,-48.80L1.80,-49.80L1.80,-51.80L8.90,-51.80L8.90,-60.10L18.90,-62.60L18.90,-51.80L31.90,-51.80L31.90,-49.80L18.90,-48.80L18.90,-13.00L18.94,-11.54L19.25,-8.94L19.87,-6.78L20.80,-5.05L22.04,-3.75L23.59,-2.89L25.45,-2.45L26.50,-2.40L27.29,-2.43L28.82,-2.68L29.55,-2.90L30.85,-3.40L31.85,-3.90L32.54,-4.33L32.90,-4.60L34.20,-3.00L33.44,-2.36L31.84,-1.25L30.14,-0.36L28.34,0.31L26.44,0.75L24.44,0.97L23.40,1.00Z   " class=""></path></g><g transform="translate(809.100,0)" fill="#243665" stroke="#243665" stroke-width="0"><path d="M13.40,-63.40L12.49,-63.45L10.80,-63.89L9.29,-64.75L8.60,-65.35L7.99,-66.02L7.10,-67.51L6.66,-69.19L6.60,-70.10L6.65,-71.01L7.09,-72.67L7.95,-74.14L8.55,-74.80L9.23,-75.38L10.74,-76.22L12.46,-76.65L13.40,-76.70L14.70,-76.58L17.00,-75.63L18.00,-74.80L18.58,-74.14L19.42,-72.68L19.85,-71.01L19.90,-70.10L19.85,-69.19L19.42,-67.51L18.58,-66.02L18.00,-65.35L17.00,-64.50L14.70,-63.52Z   " class=""></path><path d="M26.80,0.00L2.80,0.00L2.80,-2.00L9.80,-3.00L9.80,-48.70L2.80,-49.70L2.80,-51.70L19.80,-51.70L19.80,-3.00L26.80,-2.00Z   " class=""></path></g><g transform="translate(838.000,0)" fill="#243665" stroke="#243665" stroke-width="0"><path d="M30.20,1.00L29.18,0.98L27.17,0.85L25.22,0.57L23.32,0.16L21.48,-0.38L19.69,-1.07L17.95,-1.89L17.10,-2.35L16.27,-2.84L14.68,-3.91L13.20,-5.10L11.81,-6.40L10.53,-7.81L9.34,-9.34L8.26,-10.99L7.75,-11.85L7.27,-12.74L6.43,-14.57L5.73,-16.47L5.16,-18.44L4.74,-20.48L4.46,-22.59L4.32,-24.78L4.30,-25.90L4.32,-27.02L4.46,-29.20L4.74,-31.31L5.16,-33.35L5.73,-35.31L6.43,-37.20L7.27,-39.02L7.75,-39.90L8.26,-40.76L9.34,-42.39L10.53,-43.91L11.81,-45.31L13.20,-46.61L14.68,-47.79L16.27,-48.86L17.10,-49.35L17.95,-49.81L19.69,-50.63L21.48,-51.32L23.32,-51.86L25.22,-52.27L27.17,-52.55L29.18,-52.68L30.20,-52.70L31.22,-52.68L33.23,-52.55L35.18,-52.27L37.07,-51.86L38.92,-51.32L40.71,-50.63L42.45,-49.81L43.30,-49.35L44.13,-48.86L45.72,-47.79L47.20,-46.61L48.59,-45.31L49.87,-43.91L51.06,-42.39L52.14,-40.76L52.65,-39.90L53.13,-39.02L53.97,-37.20L54.67,-35.31L55.24,-33.35L55.66,-31.31L55.94,-29.20L56.08,-27.02L56.10,-25.90L56.08,-24.78L55.94,-22.59L55.66,-20.48L55.24,-18.44L54.67,-16.47L53.97,-14.57L53.13,-12.74L52.65,-11.85L52.14,-10.99L51.06,-9.34L49.87,-7.81L48.59,-6.40L47.20,-5.10L45.72,-3.91L44.13,-2.84L43.30,-2.35L42.45,-1.89L40.71,-1.07L38.92,-0.38L37.07,0.16L35.18,0.57L33.23,0.85L31.22,0.98L30.20,1.00Z   M30.20,-1.20L31.41,-1.24L33.67,-1.54L35.73,-2.14L37.59,-3.04L39.25,-4.24L40.70,-5.74L41.35,-6.60L41.87,-7.39L42.78,-9.07L43.55,-10.90L44.16,-12.87L44.62,-14.99L44.93,-17.25L45.08,-19.65L45.10,-20.90L45.10,-30.90L45.08,-32.15L44.93,-34.55L44.62,-36.80L44.16,-38.91L43.55,-40.88L42.78,-42.69L41.87,-44.37L41.35,-45.15L40.70,-46.00L39.25,-47.49L37.59,-48.68L35.73,-49.57L33.67,-50.17L31.41,-50.46L30.20,-50.50L28.99,-50.46L26.73,-50.17L24.67,-49.57L22.81,-48.68L21.15,-47.49L19.70,-46.00L19.05,-45.15L18.53,-44.37L17.62,-42.69L16.85,-40.88L16.24,-38.91L15.78,-36.80L15.47,-34.55L15.32,-32.15L15.30,-30.90L15.30,-20.90L15.32,-19.65L15.47,-17.25L15.78,-14.99L16.24,-12.87L16.85,-10.90L17.62,-9.08L18.53,-7.39L19.05,-6.60L19.70,-5.74L21.15,-4.24L22.81,-3.04L24.67,-2.14L26.73,-1.54L28.99,-1.24L30.20,-1.20Z   " class=""></path></g><g transform="translate(898.400,0)" fill="#243665" stroke="#243665" stroke-width="0"><path d="M2.70,0.00L2.70,-2.00L9.70,-3.00L9.70,-48.80L2.70,-49.80L2.70,-51.80L19.70,-51.80L19.70,-41.00L20.33,-41.88L21.63,-43.56L23.01,-45.11L24.46,-46.53L25.98,-47.83L27.58,-49.01L28.40,-49.55L29.24,-50.05L30.95,-50.93L32.71,-51.63L34.51,-52.15L36.35,-52.50L38.24,-52.68L39.20,-52.70L40.38,-52.67L42.61,-52.48L44.67,-52.08L46.56,-51.48L48.28,-50.67L49.84,-49.68L50.55,-49.10L51.21,-48.48L52.37,-47.08L53.29,-45.49L53.98,-43.71L54.44,-41.73L54.67,-39.56L54.70,-38.40L54.70,-3.00L61.70,-2.00L61.70,0.00L38.70,0.00L38.70,-2.00L44.70,-3.00L44.70,-38.20L44.67,-39.46L44.40,-41.77L43.88,-43.78L43.09,-45.50L42.60,-46.25L42.04,-46.92L40.70,-47.99L39.08,-48.70L37.16,-49.06L36.10,-49.10L35.18,-49.07L33.37,-48.80L31.59,-48.26L29.83,-47.46L28.10,-46.39L27.25,-45.75L26.55,-45.18L25.18,-43.98L23.87,-42.69L22.61,-41.31L21.41,-39.85L20.26,-38.31L19.70,-37.50L19.70,-3.00L25.70,-2.00L25.70,0.00L2.70,0.00Z   " class=""></path></g><g transform="translate(961.900,0)" fill="#243665" stroke="#243665" stroke-width="0"><path d="M24.00,1.00L22.84,0.98L20.61,0.84L18.49,0.55L16.47,0.13L14.57,-0.45L12.78,-1.16L11.10,-2.02L10.30,-2.50L9.26,-3.22L7.50,-4.79L6.17,-6.53L5.29,-8.43L4.85,-10.50L4.80,-11.60L4.90,-12.97L5.67,-15.25L6.35,-16.15L7.19,-16.87L9.27,-17.70L10.50,-17.80L11.46,-17.74L13.16,-17.24L13.90,-16.80L14.55,-16.25L15.55,-14.85L15.90,-14.00L15.23,-13.19L14.25,-11.53L13.76,-9.79L13.70,-8.90L13.78,-7.89L14.40,-6.00L15.64,-4.29L16.50,-3.50L17.23,-2.96L18.87,-2.10L20.74,-1.52L22.85,-1.24L24.00,-1.20L25.24,-1.23L27.57,-1.46L29.72,-1.91L31.69,-2.60L33.48,-3.51L34.30,-4.05L35.24,-4.79L36.74,-6.46L37.74,-8.37L38.24,-10.53L38.30,-11.70L38.19,-13.01L37.34,-15.11L36.60,-15.90L36.13,-16.26L34.88,-17.01L33.23,-17.81L31.17,-18.66L30.00,-19.10L14.90,-24.60L13.67,-25.09L11.49,-26.22L9.68,-27.59L8.22,-29.17L7.14,-30.99L6.41,-33.02L6.05,-35.29L6.00,-36.50L6.03,-37.67L6.31,-39.89L6.85,-41.97L7.67,-43.92L8.76,-45.72L10.12,-47.37L10.90,-48.15L11.62,-48.78L13.17,-49.89L14.87,-50.82L16.72,-51.56L18.73,-52.12L20.88,-52.49L23.19,-52.68L24.40,-52.70L25.57,-52.68L27.82,-52.50L29.96,-52.14L31.99,-51.59L33.90,-50.87L35.69,-49.97L36.55,-49.45L37.51,-48.77L39.13,-47.25L40.34,-45.51L41.15,-43.55L41.55,-41.37L41.60,-40.20L41.52,-39.06L40.87,-37.13L40.30,-36.35L39.60,-35.72L37.90,-34.99L36.90,-34.90L35.90,-34.97L34.17,-35.55L33.45,-36.05L32.86,-36.68L32.18,-38.25L32.10,-39.20L33.20,-40.24L33.90,-41.35L34.27,-42.61L34.40,-44.10L34.33,-45.01L33.79,-46.65L32.70,-48.07L31.95,-48.70L31.30,-49.12L29.74,-49.80L27.85,-50.25L25.63,-50.47L24.40,-50.50L23.32,-50.48L21.28,-50.31L19.39,-49.97L17.66,-49.47L16.85,-49.15L15.84,-48.68L14.09,-47.59L12.68,-46.31L12.10,-45.60L11.40,-44.49L10.60,-42.24L10.50,-41.10L10.61,-39.96L11.48,-38.06L12.25,-37.30L12.73,-36.95L13.98,-36.21L15.59,-35.43L17.57,-34.62L18.70,-34.20L32.70,-29.20L33.89,-28.73L36.04,-27.65L37.89,-26.40L39.44,-24.98L40.10,-24.20L40.69,-23.37L41.62,-21.53L42.25,-19.46L42.56,-17.15L42.60,-15.90L42.57,-14.70L42.31,-12.41L41.80,-10.25L41.03,-8.23L40.01,-6.36L38.73,-4.62L38.00,-3.80L37.32,-3.14L35.81,-1.96L34.10,-0.98L32.20,-0.20L30.10,0.39L27.81,0.78L25.32,0.98L24.00,1.00Z   " class=""></path></g></g><g></g><g></g></g></g><g transform="translate(0 0)"><g><g fill="#243665" stroke="none" x="0" y="0" transform="translate(-11.69176372831003, -0.33165425066332055) scale(1.524846912191182)"><g data-name="Layer 6"><path d="M22.4.47H9.6A1.69,1.69,0,0,0,7.92,2.16V6A1.69,1.69,0,0,0,9.6,7.64h3V25.93L16,32.07l3.37-6.14V7.64h3A1.69,1.69,0,0,0,24.08,6V2.16A1.69,1.69,0,0,0,22.4.47ZM13.63,22.14l4.73-3.42V21.3l-4.73,3.42Zm4.73.39v2.58l-3.61,2.61-1-1.85Zm0-5-4.73,3.42V18.33l4.73-3.43Zm0-3.82L13.63,17.1V14.51l4.73-3.42Zm-4.73-6h2.53L13.63,9.47Zm1.61,21,2.51-1.82L16,30ZM18.37,9.86l-4.73,3.42V10.7l4.23-3.06h.5ZM23.08,6a.69.69,0,0,1-.69.69H9.6A.69.69,0,0,1,8.92,6V2.16a.69.69,0,0,1,.69-.69H22.4a.69.69,0,0,1,.69.69Z" fill-rule="nonzero" fill="#243665" stroke="none" stroke-width="1px" stroke-linecap="butt" stroke-linejoin="miter" stroke-miterlimit="4" stroke-dasharray="none" class=""></path></g></g></g></g></g></g></svg>